<?xml version="1.0" encoding="UTF-8" standalone="no"?>
<!DOCTYPE svg PUBLIC "-//W3C//DTD SVG 1.1//EN"
 "http://www.w3.org/Graphics/SVG/1.1/DTD/svg11.dtd">
<!-- Generated by graphviz version 2.38.0 (20140413.2041)
 -->
<!-- Title: jdk.scripting.nashorn Pages: 1 -->
<svg width="161pt" height="217pt"
 viewBox="0.00 0.00 161.00 217.00" xmlns="http://www.w3.org/2000/svg" xmlns:xlink="http://www.w3.org/1999/xlink">
<g id="graph0" class="graph" transform="scale(1 1) rotate(0) translate(4 213)">
<title>jdk.scripting.nashorn</title>
<polygon fill="white" stroke="none" points="-4,4 -4,-213 157,-213 157,4 -4,4"/>
<!-- java.scripting -->
<g id="node1" class="node"><title>java.scripting</title>
<text text-anchor="middle" x="76.5" y="-101.4" font-family="DejaVuSans" font-size="12.00" fill="#e76f00">java.scripting</text>
</g>
<!-- java.base -->
<g id="node2" class="node"><title>java.base</title>
<text text-anchor="middle" x="76.5" y="-17.4" font-family="DejaVuSans" font-size="12.00" fill="#e76f00">java.base</text>
</g>
<!-- java.scripting&#45;&gt;java.base -->
<g id="edge1" class="edge"><title>java.scripting&#45;&gt;java.base</title>
<path fill="none" stroke="#999999" stroke-width="2" d="M76.5,-83.6501C76.5,-73.9808 76.5,-62.1502 76.5,-51.4157"/>
<polygon fill="#999999" stroke="#999999" stroke-width="2" points="76.5,-41.1671 81.0001,-51.1671 77,-46.1671 77.0001,-51.1671 76.5001,-51.1671 76.0001,-51.1671 76,-46.1671 72.0001,-51.1672 76.5,-41.1671 76.5,-41.1671"/>
</g>
<!-- jdk.scripting.nashorn -->
<g id="node3" class="node"><title>jdk.scripting.nashorn</title>
<text text-anchor="middle" x="76.5" y="-185.4" font-family="DejaVuSans" font-size="12.00" fill="#437291">jdk.scripting.nashorn</text>
</g>
<!-- jdk.scripting.nashorn&#45;&gt;java.scripting -->
<g id="edge2" class="edge"><title>jdk.scripting.nashorn&#45;&gt;java.scripting</title>
<path fill="none" stroke="#999999" stroke-width="2" d="M76.5,-167.65C76.5,-157.981 76.5,-146.15 76.5,-135.416"/>
<polygon fill="#999999" stroke="#999999" stroke-width="2" points="76.5,-125.167 81.0001,-135.167 77,-130.167 77.0001,-135.167 76.5001,-135.167 76.0001,-135.167 76,-130.167 72.0001,-135.167 76.5,-125.167 76.5,-125.167"/>
</g>
</g>
</svg>
