<?xml version="1.0" encoding="UTF-8" standalone="no"?>
<!DOCTYPE svg PUBLIC "-//W3C//DTD SVG 1.1//EN"
 "http://www.w3.org/Graphics/SVG/1.1/DTD/svg11.dtd">
<!-- Generated by graphviz version 2.38.0 (20140413.2041)
 -->
<!-- Title: jdk.management.jfr Pages: 1 -->
<svg width="155pt" height="217pt"
 viewBox="0.00 0.00 155.00 217.00" xmlns="http://www.w3.org/2000/svg" xmlns:xlink="http://www.w3.org/1999/xlink">
<g id="graph0" class="graph" transform="scale(1 1) rotate(0) translate(4 213)">
<title>jdk.management.jfr</title>
<polygon fill="white" stroke="none" points="-4,4 -4,-213 151,-213 151,4 -4,4"/>
<!-- java.management -->
<g id="node1" class="node"><title>java.management</title>
<text text-anchor="middle" x="73.5" y="-101.4" font-family="DejaVuSans" font-size="12.00" fill="#e76f00">java.management</text>
</g>
<!-- java.base -->
<g id="node2" class="node"><title>java.base</title>
<text text-anchor="middle" x="73.5" y="-17.4" font-family="DejaVuSans" font-size="12.00" fill="#e76f00">java.base</text>
</g>
<!-- java.management&#45;&gt;java.base -->
<g id="edge1" class="edge"><title>java.management&#45;&gt;java.base</title>
<path fill="none" stroke="#999999" stroke-width="2" d="M73.5,-83.6501C73.5,-73.9808 73.5,-62.1502 73.5,-51.4157"/>
<polygon fill="#999999" stroke="#999999" stroke-width="2" points="73.5,-41.1671 78.0001,-51.1671 74,-46.1671 74.0001,-51.1671 73.5001,-51.1671 73.0001,-51.1671 73,-46.1671 69.0001,-51.1672 73.5,-41.1671 73.5,-41.1671"/>
</g>
<!-- jdk.management.jfr -->
<g id="node3" class="node"><title>jdk.management.jfr</title>
<text text-anchor="middle" x="73.5" y="-185.4" font-family="DejaVuSans" font-size="12.00" fill="#437291">jdk.management.jfr</text>
</g>
<!-- jdk.management.jfr&#45;&gt;java.management -->
<g id="edge2" class="edge"><title>jdk.management.jfr&#45;&gt;java.management</title>
<path fill="none" stroke="#999999" stroke-width="2" d="M73.5,-167.65C73.5,-157.981 73.5,-146.15 73.5,-135.416"/>
<polygon fill="#999999" stroke="#999999" stroke-width="2" points="73.5,-125.167 78.0001,-135.167 74,-130.167 74.0001,-135.167 73.5001,-135.167 73.0001,-135.167 73,-130.167 69.0001,-135.167 73.5,-125.167 73.5,-125.167"/>
</g>
</g>
</svg>
